<svg xmlns="http://www.w3.org/2000/svg" viewBox="0 0 163.94 188.43" width="100%"><g><line x1="81.66" y1="1.5" x2="81.66" y2="94.22" fill="none" stroke="rgba(0, 0, 32, 1)" stroke-linecap="round" stroke-linejoin="round" stroke-width="3px"></line><polygon fill="none" stroke="rgba(0, 0, 32, 1)" stroke-linecap="round" stroke-linejoin="round" stroke-width="3px" points="1.5 140.58 81.66 94.22 162.44 140.58 82.28 186.93 1.5 140.58"></polygon><circle fill="#FFFFFF" stroke="rgba(0, 0, 32, 1)" stroke-linecap="round" stroke-linejoin="round" stroke-width="3px" cx="81.66" cy="94.22" r="46.36"></circle><polygon fill="none" stroke="rgba(0, 0, 32, 1)" stroke-linecap="round" stroke-linejoin="round" stroke-width="3px" points="1.5 47.86 81.66 94.22 81.66 186.93 1.5 140.58 1.5 47.86"></polygon><polygon fill="none" stroke="rgba(0, 0, 32, 1)" stroke-linecap="round" stroke-linejoin="round" stroke-width="3px" points="162.44 47.86 82.28 94.22 82.28 186.93 162.44 140.58 162.44 47.86"></polygon><polygon fill="none" stroke="rgba(0, 0, 32, 1)" stroke-linecap="round" stroke-linejoin="round" stroke-width="3px" points="1.5 47.86 81.66 1.5 162.44 47.86 82.28 94.22 1.5 47.86"></polygon><path stroke-linecap="round" stroke-linejoin="round" stroke-width="3px" fill="rgba(0, 0, 32, 1)" stroke="rgba(0, 0, 32, 1)" d="M121.54,70.6a68.1,68.1,0,0,1-67.13,56.75c-1.82,0-3.62-.09-5.41-.23A46.36,46.36,0,0,0,121.54,70.6Z"></path></g></svg>