<svg xmlns="http://www.w3.org/2000/svg" viewBox="0 0 139.09 163.14" width="100%"><g><polygon fill="#FFFFFF" stroke="rgba(0, 0, 32, 1)" stroke-linecap="round" stroke-linejoin="round" stroke-width="3px" points="42.27 25.18 83.15 1.5 94.95 8.14 54.06 31.82 42.27 25.18"></polygon><polygon stroke-linecap="round" stroke-linejoin="round" stroke-width="3px" stroke="rgba(0, 0, 32, 1)" fill="#FFFFFF" points="96.7 161.64 83.03 153.25 45.8 64.19 11.04 111.49 1.5 105.89 42.27 25.18 54.06 31.82 96.7 161.64"></polygon><polygon stroke="rgba(0, 0, 32, 1)" fill="rgba(0, 0, 32, 1)" stroke-linecap="round" stroke-linejoin="round" stroke-width="3px" points="11.04 111.49 54.73 85.57 45.8 64.19 11.04 111.49"></polygon><path stroke="rgba(0, 0, 32, 1)" fill="rgba(0, 0, 32, 1)" stroke-linecap="round" stroke-linejoin="round" stroke-width="3px" d="M121.67,98.13a27.44,27.44,0,0,1-13.94-51.08L95,8.14,54.06,31.82,96.7,161.64,137.59,138,124.46,98A27.76,27.76,0,0,1,121.67,98.13Z"></path><circle fill="#FFFFFF" stroke="rgba(0, 0, 32, 1)" stroke-linecap="round" stroke-linejoin="round" stroke-width="3px" cx="121.51" cy="70.72" r="14.71"></circle><path stroke="rgba(0, 0, 32, 1)" fill="rgba(0, 0, 32, 1)" stroke-linecap="round" stroke-linejoin="round" stroke-width="3px" d="M134.17,63.22a21.61,21.61,0,0,1-21.31,18c-.58,0-1.15,0-1.72-.07a14.71,14.71,0,0,0,23-17.94Z"></path></g></svg>